<svg xmlns="http://www.w3.org/2000/svg" width="428.762" height="111.2" viewBox="0 0 428.762 111.2"><g transform="translate(8095.762 -12224)"><g transform="translate(9.245 13)"><path d="M39.455,18.5H30.861c-3.939,0-7.161,3.534-7.161,7.853v98.259a4.661,4.661,0,0,0,4.476,4.908H42.141a4.661,4.661,0,0,0,4.476-4.908V26.353C46.617,22.034,43.394,18.5,39.455,18.5Z" transform="translate(-8128.7 12192.5)" fill="#ef9300"/><path d="M80.275,97.455h-34.2C33.726,97.455,23.7,85.88,23.7,71.619V26.768c0-4.547,3.223-8.268,7.161-8.268H80.275c12.353,0,22.379,11.575,22.379,25.836V71.619C102.655,85.88,92.629,97.455,80.275,97.455Z" transform="translate(-8128.7 12192.5)" fill="#ffa506"/><g transform="translate(-8094.258 12223.98)"><path d="M93.17,61.735,64.525,33l-.09.09V33L35.7,61.735l6.087,6,22.648-22.65L87.173,67.733Z" transform="translate(-35.7 -33)" fill="#fff"/><rect width="8.594" height="22.486" rx="4.297" transform="translate(32.775 50.382) rotate(180)" fill="#fff"/></g></g><g transform="translate(76 0.181)"><path d="M500.833,116.7,119.1,103.6,500.833,90.4Z" transform="translate(-8244.833 12218.319)" fill="#ffa506"/><text transform="translate(-8083 12292.819)" fill="#0e263e" font-size="69" font-family="Mulish-Bold, Mulish" font-weight="700"><tspan x="0" y="0">ropvenues</tspan></text></g></g></svg>
