<?xml version="1.0" encoding="utf-8"?>
<!-- Generator: Adobe Illustrator 25.3.1, SVG Export Plug-In . SVG Version: 6.00 Build 0)  -->
<svg version="1.1" id="Layer_1" xmlns="http://www.w3.org/2000/svg" xmlns:xlink="http://www.w3.org/1999/xlink" x="0px" y="0px"
	 viewBox="0 0 500 150" style="enable-background:new 0 0 500 150;" xml:space="preserve">
<style type="text/css">
	.st0{fill:#FFA506;}
	.st1{fill:#EF9300;}
	.st2{fill:#FFFFFF;}
</style>
<polygon class="st0" points="476.3,116.7 119.1,103.6 476.3,90.4 "/>
<g>
	<path class="st1" d="M41.3,18.5h-9.6c-4.4,0-8,3.6-8,8v100.1c0,2.8,2.2,5,5,5h15.6c2.8,0,5-2.2,5-5V26.5
		C49.3,22.1,45.7,18.5,41.3,18.5z"/>
	<path class="st0" d="M86.9,94.9H48.7c-13.8,0-25-11.2-25-25V26.5c0-4.4,3.6-8,8-8h55.2c13.8,0,25,11.2,25,25v26.4
		C111.9,83.7,100.7,94.9,86.9,94.9z"/>
	<g>
		<polygon class="st2" points="99.9,65.1 67.9,33 67.8,33.1 67.8,33 35.7,65.1 42.5,71.8 67.8,46.5 93.2,71.8 		"/>
		
			<rect x="62.7" y="64.2" transform="matrix(-1 7.979717e-12 -7.979717e-12 -1 135.0126 144.4625)" class="st2" width="9.6" height="16.1"/>
	</g>
	<g>
		<path d="M142.8,46.4c-2.9,0-5.5,0.6-7.8,1.7s-4,2.7-5,4.9v22.8h-9.6V38h8.9v8.1c0.7-1.3,1.5-2.5,2.4-3.5c0.9-1,1.9-1.9,3-2.7
			c1.1-0.8,2.1-1.4,3.2-1.8c1.1-0.4,2.1-0.6,3.1-0.6c0.5,0,0.9,0,1.2,0s0.5,0,0.8,0.1V46.4z"/>
		<path d="M163.7,76.5c-3.1,0-5.8-0.5-8.3-1.6c-2.4-1.1-4.5-2.5-6.2-4.3c-1.7-1.8-3-3.9-3.9-6.2c-0.9-2.4-1.4-4.8-1.4-7.4
			c0-2.6,0.5-5.1,1.4-7.5c0.9-2.4,2.2-4.4,3.9-6.2c1.7-1.8,3.8-3.2,6.2-4.3c2.4-1.1,5.2-1.6,8.3-1.6c3.1,0,5.8,0.5,8.2,1.6
			c2.4,1.1,4.5,2.5,6.2,4.3c1.7,1.8,3,3.9,3.9,6.2c0.9,2.4,1.4,4.8,1.4,7.5c0,2.6-0.5,5.1-1.4,7.4c-0.9,2.4-2.2,4.4-3.9,6.2
			c-1.7,1.8-3.7,3.2-6.2,4.3C169.5,75.9,166.8,76.5,163.7,76.5z M153.8,56.9c0,1.7,0.3,3.2,0.8,4.6c0.5,1.4,1.2,2.6,2.1,3.6
			c0.9,1,1.9,1.8,3.1,2.3c1.2,0.6,2.5,0.8,3.9,0.8c1.4,0,2.7-0.3,3.9-0.8c1.2-0.6,2.2-1.3,3.1-2.3c0.9-1,1.6-2.2,2.1-3.6
			c0.5-1.4,0.8-2.9,0.8-4.6c0-1.6-0.3-3.1-0.8-4.5c-0.5-1.4-1.2-2.6-2.1-3.6c-0.9-1-1.9-1.8-3.1-2.3c-1.2-0.6-2.5-0.8-3.9-0.8
			c-1.4,0-2.7,0.3-3.9,0.9c-1.2,0.6-2.2,1.4-3.1,2.4c-0.9,1-1.6,2.2-2.1,3.6C154.1,53.8,153.8,55.3,153.8,56.9z"/>
		<path d="M212.5,76.5c-3,0-5.6-0.7-7.8-2c-2.2-1.3-3.9-3.1-5.2-5.4v22h-9.6V38h8.4v6.5c1.4-2.2,3.2-3.9,5.4-5.2
			c2.2-1.3,4.8-1.9,7.6-1.9c2.5,0,4.9,0.5,7.1,1.5c2.2,1,4,2.4,5.6,4.2c1.6,1.8,2.8,3.8,3.7,6.2c0.9,2.4,1.3,4.9,1.3,7.5
			c0,2.7-0.4,5.3-1.2,7.7c-0.8,2.4-2,4.5-3.4,6.3c-1.5,1.8-3.2,3.2-5.2,4.2S214.9,76.5,212.5,76.5z M209.3,68.3c1.4,0,2.8-0.3,4-0.9
			c1.2-0.6,2.3-1.5,3.1-2.5c0.9-1.1,1.5-2.3,2-3.7c0.5-1.4,0.7-2.8,0.7-4.3c0-1.6-0.3-3.1-0.8-4.4c-0.5-1.4-1.3-2.6-2.2-3.6
			c-0.9-1-2-1.8-3.3-2.4c-1.3-0.6-2.7-0.9-4.1-0.9c-0.9,0-1.8,0.2-2.8,0.5c-1,0.3-1.8,0.8-2.7,1.3c-0.8,0.6-1.5,1.2-2.2,2
			c-0.6,0.8-1.1,1.6-1.5,2.5v8.9c0.9,2.2,2.2,3.9,4,5.4C205.3,67.5,207.2,68.3,209.3,68.3z"/>
		<path d="M244.4,75.7L230.5,38h9.9l9.6,29.9l9.6-29.9h9.1l-13.9,37.7H244.4z"/>
		<path d="M290,76.5c-3,0-5.8-0.5-8.2-1.5c-2.4-1-4.5-2.4-6.3-4.2c-1.7-1.8-3.1-3.8-4-6.2c-0.9-2.4-1.4-4.8-1.4-7.4
			c0-2.7,0.5-5.2,1.4-7.6c0.9-2.4,2.2-4.5,4-6.3c1.7-1.8,3.8-3.2,6.3-4.3c2.5-1.1,5.2-1.6,8.3-1.6c3.1,0,5.8,0.5,8.2,1.6
			c2.4,1.1,4.5,2.5,6.2,4.2c1.7,1.8,3,3.8,3.9,6.2c0.9,2.4,1.3,4.8,1.3,7.3c0,0.6,0,1.2,0,1.8c0,0.6-0.1,1.1-0.2,1.4h-29.2
			c0.1,1.5,0.5,2.8,1.1,4c0.6,1.2,1.3,2.1,2.2,3c0.9,0.8,1.9,1.4,3.1,1.9c1.2,0.4,2.4,0.6,3.6,0.6c1.9,0,3.7-0.5,5.4-1.4
			c1.7-0.9,2.9-2.2,3.5-3.7l8.3,2.3c-1.4,2.9-3.6,5.2-6.7,7.1C297.9,75.5,294.2,76.5,290,76.5z M299.8,53.7
			c-0.2-2.8-1.3-5.1-3.1-6.8c-1.8-1.7-4.1-2.6-6.7-2.6c-1.3,0-2.5,0.2-3.6,0.7c-1.1,0.5-2.1,1.1-3,1.9c-0.9,0.8-1.6,1.8-2.1,3
			c-0.6,1.2-0.9,2.4-1,3.8H299.8z"/>
		<path d="M350.7,75.7H341V54.6c0-3-0.5-5.2-1.6-6.6c-1.1-1.4-2.5-2.1-4.4-2.1c-1,0-1.9,0.2-3,0.6c-1,0.4-2,0.9-2.8,1.6
			c-0.9,0.7-1.7,1.5-2.4,2.5c-0.7,1-1.2,2-1.6,3.2v22h-9.6V38h8.7v7c1.4-2.4,3.4-4.3,6-5.6c2.6-1.3,5.6-2,8.9-2
			c2.4,0,4.3,0.4,5.8,1.3c1.5,0.9,2.6,2,3.5,3.4c0.8,1.4,1.4,3,1.7,4.8c0.3,1.8,0.5,3.6,0.5,5.4V75.7z"/>
		<path d="M370.6,76.5c-3.9,0-6.8-1.2-8.9-3.7c-2-2.5-3-6.2-3-11.1V38h9.6v21.5c0,5.8,2.1,8.7,6.3,8.7c1.9,0,3.7-0.6,5.4-1.7
			c1.8-1.1,3.2-2.8,4.3-5.1V38h9.6v26.6c0,1,0.2,1.7,0.5,2.2c0.4,0.4,0.9,0.7,1.8,0.7v8.2c-1,0.2-1.8,0.3-2.4,0.4
			c-0.6,0-1.2,0.1-1.8,0.1c-1.7,0-3.1-0.4-4.2-1.2c-1.1-0.8-1.7-1.9-1.9-3.3l-0.2-3c-1.7,2.6-3.8,4.5-6.5,5.8
			C376.7,75.8,373.8,76.5,370.6,76.5z"/>
		<path d="M421.1,76.5c-3,0-5.8-0.5-8.2-1.5c-2.4-1-4.5-2.4-6.3-4.2c-1.7-1.8-3.1-3.8-4-6.2c-0.9-2.4-1.4-4.8-1.4-7.4
			c0-2.7,0.5-5.2,1.4-7.6c0.9-2.4,2.2-4.5,4-6.3c1.7-1.8,3.8-3.2,6.3-4.3c2.5-1.1,5.2-1.6,8.3-1.6c3.1,0,5.8,0.5,8.2,1.6
			c2.4,1.1,4.5,2.5,6.2,4.2c1.7,1.8,3,3.8,3.9,6.2c0.9,2.4,1.3,4.8,1.3,7.3c0,0.6,0,1.2,0,1.8c0,0.6-0.1,1.1-0.2,1.4h-29.2
			c0.1,1.5,0.5,2.8,1.1,4c0.6,1.2,1.3,2.1,2.2,3c0.9,0.8,1.9,1.4,3.1,1.9c1.2,0.4,2.4,0.6,3.6,0.6c1.9,0,3.7-0.5,5.4-1.4
			c1.7-0.9,2.9-2.2,3.5-3.7l8.3,2.3c-1.4,2.9-3.6,5.2-6.7,7.1C429,75.5,425.3,76.5,421.1,76.5z M430.9,53.7
			c-0.2-2.8-1.3-5.1-3.1-6.8c-1.8-1.7-4.1-2.6-6.7-2.6c-1.3,0-2.5,0.2-3.6,0.7c-1.1,0.5-2.1,1.1-3,1.9c-0.9,0.8-1.6,1.8-2.1,3
			c-0.6,1.2-0.9,2.4-1,3.8H430.9z"/>
		<path d="M461,76.5c-3.2,0-6.3-0.5-9.3-1.5c-3-1-5.6-2.4-7.8-4.3l3.6-6c2.3,1.6,4.5,2.9,6.7,3.7c2.2,0.8,4.4,1.3,6.5,1.3
			c1.9,0,3.4-0.4,4.5-1.1c1.1-0.7,1.7-1.8,1.7-3.1c0-1.3-0.6-2.3-1.9-3c-1.3-0.6-3.4-1.3-6.3-2.2c-2.4-0.7-4.5-1.3-6.3-1.9
			c-1.7-0.6-3.1-1.3-4.2-2.1c-1.1-0.8-1.8-1.7-2.3-2.7c-0.5-1-0.7-2.3-0.7-3.7c0-1.9,0.4-3.6,1.1-5.2c0.7-1.5,1.8-2.8,3.1-3.9
			c1.3-1.1,2.9-1.9,4.7-2.5s3.8-0.9,5.9-0.9c2.8,0,5.5,0.4,8,1.2c2.5,0.8,4.7,2.1,6.8,4l-3.9,5.8c-1.9-1.4-3.8-2.5-5.6-3.2
			c-1.8-0.7-3.6-1-5.4-1c-1.6,0-3,0.3-4.1,1c-1.1,0.7-1.7,1.8-1.7,3.2c0,0.7,0.1,1.2,0.4,1.7c0.3,0.4,0.7,0.8,1.3,1.2
			c0.6,0.3,1.3,0.7,2.3,1c0.9,0.3,2.1,0.6,3.5,1c2.6,0.7,4.8,1.3,6.7,2c1.8,0.7,3.4,1.4,4.5,2.3c1.2,0.9,2,1.9,2.6,3
			c0.6,1.1,0.8,2.5,0.8,4.1c0,3.7-1.4,6.6-4.1,8.7C469.4,75.4,465.7,76.5,461,76.5z"/>
	</g>
</g>
</svg>
